<?xml version="1.0" encoding="utf-8"?>
<!-- Generator: Adobe Illustrator 16.0.0, SVG Export Plug-In . SVG Version: 6.00 Build 0)  -->
<!DOCTYPE svg PUBLIC "-//W3C//DTD SVG 1.1//EN" "http://www.w3.org/Graphics/SVG/1.1/DTD/svg11.dtd">
<svg version="1.1" id="レイヤー_1" xmlns="http://www.w3.org/2000/svg" xmlns:xlink="http://www.w3.org/1999/xlink" x="0px"
	 y="0px" width="84px" height="77.28px" viewBox="0 0 84 77.28" enable-background="new 0 0 84 77.28" xml:space="preserve">
<g>
	<defs>
		<rect id="SVGID_1_" width="84" height="77.28"/>
	</defs>
	<clipPath id="SVGID_2_">
		<use xlink:href="#SVGID_1_"  overflow="visible"/>
	</clipPath>
	<path clip-path="url(#SVGID_2_)" fill="#FF9FD4" d="M84,25.267C84,11.312,73.02,0,59.475,0C52.631,0,46.449,2.893,42,7.55
		C37.551,2.893,31.369,0,24.525,0C10.98,0,0,11.312,0,25.267c0,7.019,2.781,13.366,7.267,17.945l-0.005,0.002L42,77.28
		l34.738-34.065l-0.005-0.002C81.218,38.633,84,32.286,84,25.267"/>
	<path clip-path="url(#SVGID_2_)" fill="#E580BD" d="M42,77.28l34.738-34.066l-0.005-0.002C81.218,38.633,84,32.286,84,25.267
		C84,11.313,73.019,0,59.475,0C52.631,0,46.449,2.894,42,7.551V77.28z"/>
</g>
</svg>
